PathFileType	4	(X/Y/Z)	./resultDataOpenSim/trcMotMarkerGrf/sub06/qtm-15-05.trc
DataRate	CameraRate	NumFrames	NumMarkers	Units	OrigDataRate	OrigDataStartFrame	OrigNumFrames
250.000000	250.000000	10	24	m	250.000000	385	513
Frame#	Time	L.Toe.Tip			R.Toe.Tip			L.Ankle.Lat			R.Ankle.Lat			L.Ankle.Med			R.Ankle.Med			L.Heel			R.Heel			L.Knee.Lat			R.Knee.Lat			L.Knee.Med			R.Knee.Med			L.Thigh.Upper			R.Thigh.Upper			L.ASIS			R.ASIS			V.Sacral			L.Acromium			R.Acromium			C7			L.Elbow			R.Elbow			L.Wrist.Lat			R.Wrist.Lat
		X1	Y1	Z1	X2	Y2	Z2	X3	Y3	Z3	X4	Y4	Z4	X5	Y5	Z5	X6	Y6	Z6	X7	Y7	Z7	X8	Y8	Z8	X9	Y9	Z9	X10	Y10	Z10	X11	Y11	Z11	X12	Y12	Z12	X13	Y13	Z13	X14	Y14	Z14	X15	Y15	Z15	X16	Y16	Z16	X17	Y17	Z17	X18	Y18	Z18	X19	Y19	Z19	X20	Y20	Z20	X21	Y21	Z21	X22	Y22	Z22	X23	Y23	Z23	X24	Y24	Z24

385	1.536	1.2624778	0.12010299	-0.080695174	1.0099372	0.036211278	0.05129847	1.1742062	0.21390474	-0.10648877	0.88771806	0.097434245	0.08963248	1.1885629	0.22665165	-0.023556986	0.91549973	0.12631254	0.0081354618	1.0949508	0.21913446	-0.062611248	0.83377134	0.10117767	0.029038132	1.3646207	0.54223964	-0.10057692	1.0189956	0.47062724	0.13830758	1.3408455	0.53508618	0.021074546	1.0026104	0.47104819	0.0077068477	1.1321802	0.86094813	-0.13638684	1.0580144	0.83813993	0.203469	1.1860196	0.90393577	-0.07600145	1.1596006	0.89456596	0.16765147	0.99022061	0.97459217	0.026922908	1.1614242	1.3749812	-0.14443143	1.1376894	1.3709917	0.21103832	1.0719189	1.4107177	0.02976925	1.0469739	1.0880764	-0.21593616	1.1904839	1.056077	0.30793508	1.123249	0.85970227	-0.25721268	1.4262579	1.1187274	0.23010546
386	1.54	1.2791038	0.11785182	-0.080032909	1.0100086	0.036184962	0.051269905	1.1881281	0.20893304	-0.10571544	0.88822508	0.098062401	0.089704785	1.2020392	0.22185669	-0.022614321	0.91612972	0.12675137	0.0081852419	1.1087747	0.21202852	-0.061930978	0.83430608	0.10208095	0.029106033	1.3705467	0.54194244	-0.099991531	1.0212224	0.47066948	0.13809002	1.3468954	0.53473375	0.021434767	1.005208	0.47103781	0.007387851	1.1385698	0.8607248	-0.13639451	1.0630064	0.83770671	0.20355208	1.1921811	0.90369005	-0.075727469	1.1648414	0.89397625	0.1680055	0.99584611	0.974032	0.026292379	1.1664949	1.3746976	-0.144288	1.1428607	1.370626	0.21109407	1.0769557	1.4102868	0.029886004	1.0501353	1.0887847	-0.21534561	1.1989487	1.0565587	0.30798665	1.1237397	0.85987868	-0.25824489	1.432837	1.1229602	0.22784782
387	1.544	1.2957507	0.11568801	-0.079299701	1.0100797	0.036156107	0.051241912	1.202152	0.20394098	-0.10486872	0.88875919	0.098654365	0.089807763	1.2157007	0.21708704	-0.021653188	0.91675222	0.12717785	0.0082530358	1.1227801	0.20490145	-0.061082214	0.83483082	0.10296527	0.029209563	1.3763348	0.54148769	-0.099439906	1.0235204	0.47066213	0.13788092	1.3528601	0.53420969	0.021777109	1.007858	0.47094563	0.0070848298	1.1449486	0.8603888	-0.13640151	1.0679577	0.83720426	0.20357151	1.1984027	0.90333812	-0.075482404	1.1701096	0.89333672	0.16831265	1.0015538	0.9733974	0.025583052	1.1715736	1.3743445	-0.1441514	1.1480445	1.3701805	0.21115594	1.0820056	1.4097938	0.03000797	1.0533458	1.089411	-0.21476376	1.2073478	1.0569358	0.30802104	1.1243412	0.86001763	-0.25923425	1.4394216	1.1270816	0.22581308
388	1.548	1.3124133	0.11362127	-0.078494249	1.0101547	0.036125375	0.051209324	1.2162783	0.19892752	-0.1039095	0.88933574	0.099214478	0.089953772	1.229502	0.21234407	-0.020663605	0.91736519	0.12758383	0.0083394481	1.1369519	0.19773162	-0.059964455	0.83535017	0.10383658	0.029351294	1.3819821	0.54087529	-0.098914944	1.0258916	0.47061177	0.13768629	1.3587617	0.53352841	0.02210662	1.0105597	0.47078674	0.0068023954	1.1513074	0.85993225	-0.13640232	1.072703	0.8365699	0.20334373	1.2046813	0.90289674	-0.075279659	1.1753647	0.89263978	0.16852668	1.0073481	0.97266744	0.024773939	1.1766607	1.373917	-0.14402789	1.1532461	1.3696588	0.21122861	1.0870692	1.4092397	0.030139185	1.0566063	1.0899564	-0.21419812	1.2156813	1.0572113	0.30801645	1.1250549	0.86011438	-0.26018288	1.4460066	1.1310688	0.22398995
389	1.552	1.3290925	0.11166135	-0.077611494	1.0102366	0.036094241	0.05116547	1.2305015	0.19388901	-0.10282772	0.88995502	0.099763103	0.0901429	1.2433637	0.20762204	-0.019629676	0.91796786	0.12796684	0.008444702	1.1512643	0.19053082	-0.058677446	0.83586444	0.10469979	0.029528057	1.3874922	0.54010258	-0.098411497	1.028329	0.47052196	0.13750723	1.3646131	0.5327067	0.022431135	1.0133083	0.47056893	0.0065482369	1.1576234	0.85935102	-0.13638699	1.0772713	0.83581196	0.20289399	1.2109426	0.9023781	-0.075098908	1.1806021	0.89186216	0.16866669	1.0132195	0.97183276	0.023902385	1.1817539	1.3734107	-0.14391873	1.1584729	1.3690633	0.21131445	1.0921504	1.4086222	0.030281503	1.0599152	1.0904186	-0.21365167	1.2239568	1.057399	0.30795437	1.1258908	0.86016896	-0.2610958	1.4525564	1.1348865	0.22229064
390	1.556	1.3457847	0.10981877	-0.07664065	1.0103249	0.036066037	0.051106699	1.244808	0.18882874	-0.10162658	0.89058508	0.10031677	0.090362254	1.2572043	0.20291934	-0.018544114	0.91855791	0.12833545	0.0085706712	1.1656996	0.18333535	-0.057387625	0.83637313	0.10555499	0.029732887	1.3928695	0.53916692	-0.097924405	1.0308232	0.4703896	0.13734689	1.3704037	0.53175711	0.0227554	1.0160979	0.47028769	0.0063275239	1.1638901	0.85864328	-0.13635741	1.0817873	0.83497894	0.20235047	1.217125	0.90177908	-0.074907886	1.185841	0.89099173	0.16877534	1.0191462	0.97091	0.023041579	1.186853	1.3728252	-0.14381953	1.1637322	1.3683959	0.2114127	1.0972517	1.4079375	0.030433464	1.063275	1.0907973	-0.21312429	1.2321831	1.0575112	0.30782648	1.1268607	0.86018526	-0.26197857	1.4590446	1.1385185	0.22065123
391	1.56	1.3624782	0.10810721	-0.075574959	1.0104135	0.036043769	0.051039542	1.2591839	0.18377405	-0.10032786	0.8911669	0.10087071	0.09059439	1.2710013	0.19824721	-0.017415399	0.9191299	0.12870267	0.0087209906	1.1802589	0.17617728	-0.056166288	0.83688926	0.1063975	0.029951085	1.3981136	0.53806746	-0.097448759	1.0333766	0.47020577	0.13722301	1.3761106	0.53068036	0.02307995	1.0189258	0.46993891	0.0061444118	1.1701584	0.85781582	-0.13634404	1.0863341	0.83410669	0.20179645	1.2232555	0.90108383	-0.074702705	1.1911037	0.89003104	0.16887835	1.0251078	0.96992438	0.022249881	1.191958	1.3721636	-0.14372527	1.1690289	1.367658	0.21152072	1.1023693	1.4071825	0.030589434	1.0666901	1.0910975	-0.21262242	1.2403688	1.057553	0.30763571	1.127954	0.86016383	-0.26282847	1.4654574	1.1419653	0.21904846
392	1.564	1.3791573	0.10654397	-0.074415735	1.0104923	0.036026451	0.050987856	1.2736244	0.17877719	-0.098996092	0.89166667	0.10140847	0.090832522	1.2848195	0.19363477	-0.01624994	0.91968373	0.12907374	0.0088973675	1.1949502	0.16907781	-0.054998418	0.83743177	0.10722643	0.030169102	1.4032221	0.53680354	-0.096980307	1.0360036	0.46996247	0.13716487	1.3817172	0.52946407	0.023405046	1.0217917	0.46952596	0.006001984	1.1765036	0.85688692	-0.13639076	1.0909201	0.83320562	0.20123098	1.2294028	0.90027954	-0.074507859	1.196413	0.88898649	0.1689813	1.0310942	0.96889169	0.021548625	1.1970662	1.3714304	-0.1436353	1.1743583	1.3668524	0.21163714	1.1074975	1.4063583	0.030743562	1.0701601	1.0913221	-0.21215309	1.2485156	1.0575227	0.307396	1.1291296	0.86009863	-0.26363472	1.471791	1.1452269	0.21748078
393	1.568	1.3958072	0.10514396	-0.073165316	1.0105551	0.036008885	0.050995226	1.2881293	0.17388249	-0.097694776	0.89213378	0.10192588	0.091092713	1.2988093	0.18913575	-0.01501647	0.920229	0.12944186	0.0090965864	1.2097726	0.16205357	-0.053852389	0.83798655	0.10805603	0.030404646	1.4081978	0.53537192	-0.096513838	1.0387113	0.46966075	0.13718774	1.3872144	0.52809121	0.023733532	1.024693	0.46905616	0.0058983736	1.182925	0.85587213	-0.13650417	1.0955216	0.83227648	0.20061774	1.235601	0.89936591	-0.074343578	1.2017832	0.88786142	0.16908139	1.0371028	0.96781695	0.020933886	1.2021755	1.3706299	-0.14355368	1.1797131	1.3659818	0.21176139	1.1126351	1.4054727	0.030895172	1.0736832	1.0914655	-0.21170887	1.2566097	1.0574112	0.30713141	1.1303572	0.85998383	-0.26439086	1.4780544	1.1483032	0.21595258
394	1.572	1.412415	0.10391405	-0.071822348	1.0106038	0.035985759	0.051109992	1.3026971	0.16910339	-0.096423085	0.89266802	0.10243819	0.09139987	1.3131057	0.18481133	-0.013611288	0.92077674	0.12979836	0.0093128584	1.224714	0.1551195	-0.052685932	0.83850252	0.10890982	0.03070689	1.4130493	0.53376701	-0.096042449	1.0414885	0.46931192	0.13727585	1.3926	0.52655346	0.02407016	1.0276251	0.46853855	0.0058305299	1.1893209	0.85477327	-0.13663569	1.1001471	0.83132296	0.19996512	1.2418473	0.89835077	-0.074209553	1.2072096	0.88665521	0.16917407	1.0431341	0.9667003	0.020394128	1.2072888	1.3697663	-0.14348533	1.1850993	1.3650456	0.21188998	1.1177828	1.4045344	0.031044739	1.0772613	1.0915204	-0.21127426	1.2646254	1.0572046	0.30686953	1.1316587	0.85981836	-0.2651032	1.4842676	1.1512004	0.21446429
